<svg width="120" height="120" viewBox="0 0 120 120" fill="none" xmlns="http://www.w3.org/2000/svg">
<path d="M102 0H18C13.2261 0 8.64773 1.89642 5.27208 5.27208C1.89642 8.64773 0 13.2261 0 18V102C0 106.774 1.89642 111.352 5.27208 114.728C8.64773 118.104 13.2261 120 18 120H102C102.987 119.986 103.971 119.886 104.94 119.7L106.74 119.28H107.16H107.46L109.68 118.44L110.46 118.02C111.06 117.66 111.72 117.36 112.32 116.94C113.121 116.351 113.883 115.709 114.6 115.02L115.02 114.48C115.609 113.883 116.151 113.241 116.64 112.56L117.18 111.78C117.599 111.112 117.96 110.409 118.26 109.68C118.425 109.392 118.565 109.091 118.68 108.78C118.98 108.06 119.16 107.28 119.4 106.5V105.6C119.74 104.428 119.942 103.219 120 102V18C120 13.2261 118.104 8.64773 114.728 5.27208C111.352 1.89642 106.774 0 102 0ZM18 108C16.4087 108 14.8826 107.368 13.7574 106.243C12.6321 105.117 12 103.591 12 102V76.14L31.74 56.34C32.2978 55.7776 32.9614 55.3313 33.6925 55.0266C34.4237 54.722 35.2079 54.5652 36 54.5652C36.7921 54.5652 37.5763 54.722 38.3075 55.0266C39.0386 55.3313 39.7022 55.7776 40.26 56.34L91.86 108H18ZM108 102C107.994 102.74 107.852 103.472 107.58 104.16C107.443 104.452 107.282 104.733 107.1 105C106.939 105.254 106.759 105.495 106.56 105.72L74.46 73.62L79.74 68.34C80.2978 67.7776 80.9614 67.3313 81.6925 67.0266C82.4237 66.722 83.2079 66.5652 84 66.5652C84.7921 66.5652 85.5763 66.722 86.3075 67.0266C87.0386 67.3313 87.7022 67.7776 88.26 68.34L108 88.14V102ZM108 71.16L96.72 60C93.2863 56.742 88.7334 54.9257 84 54.9257C79.2666 54.9257 74.7137 56.742 71.28 60L66 65.28L48.72 48C45.2863 44.742 40.7334 42.9257 36 42.9257C31.2666 42.9257 26.7137 44.742 23.28 48L12 59.16V18C12 16.4087 12.6321 14.8826 13.7574 13.7574C14.8826 12.6321 16.4087 12 18 12H102C103.591 12 105.117 12.6321 106.243 13.7574C107.368 14.8826 108 16.4087 108 18V71.16ZM69 24C67.22 24 65.4799 24.5278 63.9999 25.5168C62.5198 26.5057 61.3663 27.9113 60.6851 29.5558C60.0039 31.2004 59.8257 33.01 60.1729 34.7558C60.5202 36.5016 61.3774 38.1053 62.636 39.364C63.8947 40.6226 65.4984 41.4798 67.2442 41.8271C68.99 42.1743 70.7996 41.9961 72.4442 41.3149C74.0887 40.6337 75.4943 39.4802 76.4832 38.0001C77.4722 36.5201 78 34.78 78 33C78 30.6131 77.0518 28.3239 75.364 26.636C73.6761 24.9482 71.3869 24 69 24Z" fill="#B0B0B0"/>
</svg>
