<svg width="202" height="58" viewBox="0 0 202 58" fill="none" xmlns="http://www.w3.org/2000/svg">
<path d="M69.658 0.958984L69.9216 2.53613L69.9626 2.78125L69.7175 2.82324L69.5427 2.85352C68.6183 3.00913 67.7842 3.41385 66.9988 4.09961L66.6658 4.41016C65.7813 5.29373 65.144 6.34738 64.7214 7.63574L64.6443 7.87207L64.407 7.79492L64.241 7.74121L63.2029 7.41602V7.41504L63.0398 7.37109L62.8015 7.30469L62.866 7.06445C63.2916 5.48891 64.092 4.09804 65.2429 2.93359L65.4636 2.71777C66.5759 1.66861 67.8277 1.01481 69.1912 0.783203L69.1921 0.782227L69.3708 0.75293L69.6169 0.712891L69.658 0.958984Z" fill="#FAFAFA" stroke="#FAFAFA" stroke-width="0.5"/>
<path d="M88.7478 40.1572C88.8327 40.2766 88.922 40.392 89.0164 40.5059L89.3152 40.8447L89.324 40.8545C89.5106 41.0762 89.7123 41.2799 89.9148 41.4473L90.0056 41.5225V41.5479C90.5463 42.0448 91.149 42.4799 91.8044 42.8486H91.8054C93.4401 43.7717 95.3229 44.2441 97.406 44.2441C98.7425 44.2441 100.134 43.9323 101.591 43.3184C103.046 42.6868 104.265 41.8834 105.238 40.9102L105.42 40.7285L105.596 40.9141L106.683 42.0566L106.852 42.2344L106.677 42.4072C105.496 43.5733 104.04 44.5173 102.34 45.2422C100.616 45.9845 98.9802 46.332 97.406 46.332C94.8712 46.332 92.5992 45.7887 90.5964 44.6777L90.5955 44.6768C89.977 44.331 89.4123 43.9484 88.8865 43.5303V43.5293C88.4162 43.1669 87.9977 42.7687 87.6189 42.3359L87.4792 42.1904C87.3433 42.0432 87.2187 41.8905 87.0994 41.7441L86.95 41.5615L87.1238 41.4014C87.5651 40.9955 87.9851 40.5758 88.3523 40.1406L88.5613 39.8945L88.7478 40.1572ZM97.406 20.2139C98.9457 20.2139 100.585 20.5991 102.305 21.3408H102.304C104.041 22.0833 105.496 23.0443 106.677 24.1914L106.87 24.3799L106.668 24.5586L105.472 25.6113L105.297 25.7666L105.131 25.6006C104.196 24.6634 102.993 23.8777 101.538 23.2637L101.536 23.2627C100.08 22.6315 98.7032 22.3193 97.406 22.3193C95.3237 22.3194 93.4408 22.791 91.8064 23.7129L91.8074 23.7139C91.2655 24.0278 90.7604 24.377 90.2859 24.7607L90.0652 24.9395L89.9158 24.6982C89.7804 24.479 89.6278 24.274 89.4675 24.0605C89.2777 23.8169 89.091 23.6129 88.8865 23.374L88.7205 23.1797L88.9187 23.0176C89.3036 22.703 89.7164 22.4089 90.1531 22.1426L90.5974 21.8857C92.5988 20.7758 94.8702 20.2139 97.406 20.2139Z" fill="#FAFAFA" stroke="#FAFAFA" stroke-width="0.5"/>
<path d="M87.7151 38.4846C87.7786 38.6377 87.8577 38.7806 87.9436 38.9426L88.1262 39.259C88.3157 39.5721 88.5237 39.8759 88.7366 40.1604L88.8567 40.3215L88.7258 40.4729C88.3414 40.9188 87.9089 41.3503 87.4583 41.7649L87.2629 41.9446L87.0959 41.7395C86.7009 41.2577 86.3397 40.7364 86.0286 40.177L85.9377 40.0139L86.0686 39.8801C86.5219 39.4193 86.9219 38.9329 87.2815 38.4338L87.5432 38.0706L87.7151 38.4846Z" fill="#FAFAFA" stroke="#FAFAFA" stroke-width="0.5"/>
<path d="M87.8816 24.3564C88.2408 24.8072 88.5893 25.316 88.863 25.8652C88.8654 25.8687 88.8679 25.8718 88.8699 25.875L89.0339 26.0117L88.8816 26.2031C88.545 26.6257 88.2336 27.0601 87.9744 27.5254L87.9568 27.5557L87.95 27.5615C87.9463 27.5679 87.9416 27.575 87.9363 27.583C87.018 29.2162 86.5633 31.098 86.5632 33.2363C86.5632 35.1466 86.947 36.9112 87.7156 38.4785L87.783 38.6162L87.6902 38.7393C87.3099 39.2437 86.8911 39.7542 86.4167 40.2285L86.2371 40.4082L86.0603 40.2246C86.0104 40.1728 85.9615 40.1011 85.9294 40.0205C84.8012 38.0358 84.2625 35.765 84.2625 33.2363C84.2625 30.7244 84.8019 28.4896 85.9304 26.5225C85.9472 26.4878 85.9644 26.4533 85.9812 26.4189L85.9851 26.4111L85.99 26.4033C86.2632 25.931 86.5561 25.4907 86.9041 25.0674C87.0867 24.8131 87.2858 24.5756 87.5037 24.3418L87.7009 24.1299L87.8816 24.3564Z" fill="#FAFAFA" stroke="#FAFAFA" stroke-width="0.5"/>
<path d="M89.2664 23.0481C89.3625 23.1603 89.4614 23.2729 89.5613 23.3889L89.8621 23.7542L89.865 23.7571C90.0244 23.9693 90.1909 24.1924 90.3406 24.4348L90.4548 24.6194L90.2888 24.7581C89.7663 25.1953 89.2963 25.6637 88.9031 26.1809L88.8923 26.1946L88.863 26.2239L88.7019 26.386L88.5261 26.2395C88.5037 26.2207 88.4857 26.2006 88.4714 26.1809C88.465 26.1719 88.4601 26.1627 88.4558 26.1555L88.4421 26.1418L88.4246 26.1047C88.1699 25.5896 87.839 25.106 87.491 24.6692L87.3621 24.5081L87.4958 24.3508C87.9216 23.8522 88.4166 23.4134 88.9216 23.0149L89.1101 22.8665L89.2664 23.0481ZM88.8865 25.9026C88.8854 25.9007 88.8817 25.8948 88.8767 25.8879C88.8755 25.8863 88.8741 25.8847 88.8728 25.8831C88.8797 25.8946 88.8858 25.9012 88.8865 25.9026Z" fill="#FAFAFA" stroke="#FAFAFA" stroke-width="0.5"/>
<path d="M119.725 20.1252C122.062 20.1253 123.967 20.6146 125.466 21.6125H125.467C126.815 22.5217 127.762 23.3855 128.295 24.2063L128.396 24.3694L128.398 24.3733C128.749 24.9957 129.09 25.6674 129.421 26.3889L129.748 27.1262L129.751 27.134C130.205 28.2969 130.496 29.4961 130.624 30.7502C130.75 31.9842 130.82 33.0283 130.82 33.8792V34.1292H110.117C110.147 35.9039 110.501 37.4993 111.183 38.8958L111.331 39.1858C112.15 40.7342 113.278 41.9306 114.752 42.7981L114.753 42.7991C116.207 43.6652 117.855 44.0833 119.725 44.0833C121.662 44.0833 123.204 43.7663 124.365 43.1165L124.37 43.1135C125.501 42.5084 125.044 42.75 125.544 42.4797C125.55 42.4676 125.556 42.4562 125.562 42.4465C125.581 42.4159 125.606 42.3822 125.632 42.3489C125.733 42.2175 125.923 42.0011 126.153 41.7327C126.621 41.1865 127.295 40.3822 127.921 39.4495L128.041 39.2698L128.236 39.3635L129.678 40.0588L129.892 40.1614L129.801 40.3801C129.12 42.0044 127.905 43.3793 126.213 44.4895L126.212 44.4885C124.485 45.6278 122.331 46.1897 119.725 46.1897C117.403 46.1897 115.339 45.6435 113.529 44.5286C111.725 43.4153 110.319 41.8635 109.32 39.8977C108.317 37.9316 107.812 35.6804 107.812 33.1838C107.812 30.6876 108.318 28.4366 109.32 26.4358V26.4348C110.319 24.4506 111.725 22.8994 113.528 21.7854H113.529C115.339 20.6706 117.403 20.1252 119.725 20.1252ZM125.727 42.3889C125.722 42.3899 125.716 42.3907 125.712 42.3918L125.796 42.5481C125.819 42.5154 125.853 42.4748 125.893 42.425C125.892 42.4244 125.891 42.4227 125.89 42.4221C125.812 42.3731 125.738 42.387 125.727 42.3889ZM124.392 23.553C123.107 22.5756 121.544 22.1256 119.74 22.2297L119.732 22.2307H119.725C117.855 22.2307 116.207 22.6489 114.752 23.4983L114.748 23.5002C113.276 24.3318 112.148 25.5087 111.33 27.0383L111.331 27.0393C110.552 28.5028 110.15 30.1626 110.117 32.0237H128.426C128.392 30.484 128.045 28.944 127.396 27.4309V27.4299C126.701 25.8265 125.711 24.5422 124.393 23.554L124.392 23.553Z" fill="#FAFAFA" stroke="#FAFAFA" stroke-width="0.5"/>
<path d="M135.965 20.2139V23.8213C136.513 22.9324 137.379 22.1885 138.543 21.5801C140.152 20.7381 142.012 20.3213 144.115 20.3213C145.916 20.3213 147.545 20.7036 148.957 21.4561C150.391 22.208 151.496 23.2582 152.286 24.6016C153.077 25.945 153.481 27.4705 153.482 29.1699V46.1895H151.181V30.0801C151.181 27.7968 150.501 25.9687 149.194 24.54V24.5391C147.872 23.1323 146.192 22.4268 144.115 22.4268C142.549 22.4268 141.16 22.7577 139.912 23.3984C138.667 24.0402 137.7 24.9027 136.993 25.9707C136.306 27.0183 135.965 28.1665 135.965 29.3838V46.1895H133.664V20.2139H135.965Z" fill="#FAFAFA" stroke="#FAFAFA" stroke-width="0.5"/>
<path d="M163.192 13.1665V20.2134H170.04V22.3188H163.192V39.5884C163.192 40.8285 163.523 41.856 164.174 42.687L164.309 42.8501L164.31 42.8521V42.853C165.028 43.7056 165.959 44.1372 167.08 44.1372C167.891 44.1372 168.794 43.9995 169.811 43.7017L170.061 43.6284L170.123 43.8804L170.534 45.522L170.596 45.7681L170.349 45.8257C169.192 46.0966 168.103 46.2427 167.08 46.2427C165.361 46.2427 163.9 45.6667 162.762 44.4897V44.4888C161.611 43.317 160.984 41.8129 160.891 39.9937L160.89 39.981V22.3188H156.323V20.2134H160.89V13.1665H163.192Z" fill="#FAFAFA" stroke="#FAFAFA" stroke-width="0.5"/>
<path d="M175.684 9.56396V46.1899H173.383V9.56396H175.684Z" fill="#FAFAFA" stroke="#FAFAFA" stroke-width="0.5"/>
<path d="M180.907 20.2139L180.971 20.3701L190.132 42.9062L198.857 20.374L198.92 20.2139H201.368L201.232 20.5557L191.869 44.1768L186.821 57.0908L186.76 57.25H184.315L184.446 56.9102L188.869 45.4414L178.548 20.5596L178.404 20.2139H180.907Z" fill="#FAFAFA" stroke="#FAFAFA" stroke-width="0.5"/>
<path d="M80.2485 2.15894C82.6254 2.15894 84.9617 2.70382 87.2231 3.78979C89.0665 4.67667 90.6368 5.9808 91.8872 7.63745L92.1333 7.97339L92.1382 7.98022L92.1421 7.98706L92.2847 8.21851L92.4077 8.41772L92.2173 8.55347L90.7192 9.62378L90.5015 9.78003L90.3618 9.55151L90.2183 9.32007H90.2173C89.1709 7.79874 87.8802 6.60357 86.3784 5.77222L86.0747 5.61108C84.1818 4.64736 82.2208 4.17554 80.2485 4.17554C77.116 4.17555 74.5566 5.00151 72.6118 6.63257L72.6108 6.63354C70.6197 8.28043 69.6177 10.4051 69.6177 12.9705C69.6177 14.8835 70.1535 16.4639 71.1987 17.696C72.2251 18.8971 73.5147 19.8573 75.0503 20.5564C76.5212 21.2111 78.5469 21.9758 81.0913 22.7947H81.0903C83.5579 23.5452 85.599 24.2798 87.1997 24.9988H87.1987L87.9155 25.321L87.9233 25.324C88.1957 25.46 88.4775 25.6025 88.7427 25.7605C88.7786 25.7732 88.8045 25.7903 88.8179 25.7996C88.847 25.8198 88.8699 25.8421 88.8843 25.8572L89.0532 26.0339L88.8804 26.2068L88.8726 26.2136C88.5392 26.6328 88.2311 27.0638 87.9741 27.5251L87.8423 27.7625L87.6167 27.6111C87.144 27.2948 86.6409 26.9994 86.103 26.7566V26.7556C86.0906 26.7505 86.0782 26.7471 86.0679 26.741C86.0662 26.74 86.0646 26.7381 86.063 26.7371C84.5199 26.0644 82.4623 25.3017 79.9399 24.5017V24.5007C77.2247 23.6969 74.9659 22.8729 73.2378 22.0632C71.5434 21.2793 70.1042 20.1303 68.9712 18.6355C67.8258 17.1542 67.2613 15.2413 67.2612 12.9705C67.2612 9.81104 68.4353 7.26056 70.8823 5.2146C73.3089 3.17045 76.4751 2.15894 80.2485 2.15894Z" fill="#FAFAFA" stroke="#FAFAFA" stroke-width="0.5"/>
<path d="M67.374 37.9226L67.5342 38.1365C68.9753 40.069 70.7298 41.5785 72.7246 42.6121H72.7256C74.9967 43.774 77.2963 44.3513 79.5518 44.3513C82.7909 44.3513 85.5021 43.5416 87.6455 41.9568C87.8044 41.8323 87.9638 41.7089 88.1221 41.5857L88.123 41.5847C88.4139 41.3616 88.6904 41.1023 88.9336 40.8572L88.9395 40.8513L88.9463 40.8455L88.9668 40.8269L89.1436 40.6726L89.3086 40.8386L89.9326 41.4636L90.0059 41.5369V41.5691C90.118 41.7255 90.241 41.8813 90.3584 42.032L90.4629 42.157L90.6104 42.3328L90.4473 42.4949L90.3223 42.6199L90.3213 42.6189C90.1844 42.7751 90.01 42.9141 89.9004 43.0076L89.8994 43.0085C89.6687 43.2026 89.4323 43.3851 89.1895 43.5349C86.6225 45.4285 83.3943 46.3679 79.5518 46.3679C76.8918 46.3679 74.2133 45.734 71.6318 44.4871C69.3081 43.363 67.3331 41.6938 65.7432 39.5408L65.7354 39.53L65.7285 39.5183L65.6035 39.3044L65.4951 39.1199L65.6611 38.9851L67.0156 37.8787L67.2178 37.7136L67.374 37.9226Z" fill="#FAFAFA" stroke="#FAFAFA" stroke-width="0.5"/>
<path d="M3.02832 0.779053L3.0918 0.935303L9.82715 17.4939L16.2412 0.939209L16.3037 0.779053H18.6621L18.5264 1.12085L11.3691 19.1902L7.5127 29.0466L7.45117 29.2058H5.09863L5.22949 28.866L8.62109 20.0574L0.769531 1.12476L0.625977 0.779053H3.02832Z" fill="#FAFAFA" stroke="#FAFAFA" stroke-width="0.5"/>
<path d="M29.3184 0.75C31.1402 0.750004 32.8085 1.16919 34.2598 2.0332L34.5283 2.19629C35.7637 2.97603 36.7595 4.03463 37.5146 5.34277L37.6729 5.62695L37.6738 5.62988C38.4783 7.16818 38.8759 8.92128 38.876 10.8301C38.876 12.7562 38.4785 14.51 37.6738 16.0488L37.6719 16.0518C36.8487 17.5681 35.7122 18.7995 34.2598 19.6455L34.2588 19.6445C32.8076 20.5083 31.14 20.9277 29.3184 20.9277C27.4951 20.9277 25.8437 20.5089 24.4082 19.6436V19.6426C22.956 18.796 21.8382 17.5654 21.0352 16.0498L21.0342 16.0488C20.2282 14.5102 19.8281 12.7564 19.8281 10.8301C19.8281 9.04038 20.1807 7.38789 20.8887 5.9209L21.0342 5.62988C21.8211 4.11126 22.9572 2.88095 24.4082 2.03516L24.6807 1.87793C26.0515 1.11907 27.6093 0.75 29.3184 0.75ZM29.3184 2.80273C27.9162 2.80273 26.6602 3.14868 25.5596 3.81836C24.4607 4.48867 23.5991 5.435 22.9756 6.64551C22.3545 7.87205 22.041 9.27712 22.041 10.8301C22.041 12.4021 22.3556 13.8067 22.9766 15.0156H22.9756C23.5998 16.2276 24.4619 17.1906 25.5596 17.8604C26.6599 18.5301 27.9161 18.876 29.3184 18.876C30.6667 18.876 31.8717 18.5718 32.9375 17.9814L33.1484 17.8594C34.2481 17.1887 35.1255 16.2261 35.7285 15.0186L35.7295 15.0156C36.3531 13.807 36.667 12.4022 36.667 10.8301C36.667 9.27626 36.353 7.87039 35.7285 6.64355V6.64258C35.1262 5.4363 34.2496 4.48954 33.1484 3.81836C32.0313 3.1484 30.7564 2.80274 29.3184 2.80273Z" fill="#FAFAFA" stroke="#FAFAFA" stroke-width="0.5"/>
<path d="M44.6633 0.782959V13.5554C44.6634 15.1906 45.1384 16.4571 46.051 17.3523L46.052 17.3533C46.9725 18.2666 48.163 18.7195 49.7161 18.7195C50.6535 18.7195 51.5293 18.515 52.3303 18.113L52.6692 17.9285C53.5534 17.4003 54.2614 16.7208 54.7717 15.9128L54.9055 15.7009L55.1174 15.8347L55.2454 15.9167L56.0159 16.2087L56.1741 16.2595L56.4133 16.3357L56.3362 16.574C55.9403 17.8034 55.1194 18.8203 53.9143 19.5984C52.6963 20.3846 51.2788 20.782 49.7161 20.782C48.335 20.782 47.0751 20.4869 45.9788 19.9001C44.871 19.3161 43.9925 18.4882 43.3792 17.4373C42.7583 16.3953 42.4456 15.188 42.4456 13.8562V0.782959H44.6633Z" fill="#FAFAFA" stroke="#FAFAFA" stroke-width="0.5"/>
<path d="M60.0967 0.782959V20.7742H57.8936V0.782959H60.0967Z" fill="#FAFAFA" stroke="#FAFAFA" stroke-width="0.5"/>
</svg>
