<svg width="24" height="20" viewBox="0 0 24 20" fill="none" xmlns="http://www.w3.org/2000/svg">
<path d="M18.3687 20C19.9777 20 21.3184 19.4702 22.3911 18.4106C23.4637 17.351 24 15.6512 24 13.3113C24 11.0155 23.486 8.74172 22.4581 6.49007C21.4302 4.19426 20.067 2.03091 18.3687 0L14.3464 2.51656C15.0615 3.62031 15.6872 4.74614 16.2235 5.89404C16.7151 6.99779 17.095 8.12362 17.3631 9.27152C16.0223 9.49227 14.9497 10.0662 14.1453 10.9934C13.2961 11.8764 12.8715 13.0684 12.8715 14.5695C12.8715 16.2472 13.3855 17.5717 14.4134 18.543C15.4413 19.5143 16.7598 20 18.3687 20ZM5.49721 20C7.10615 20 8.44693 19.4702 9.51955 18.4106C10.5922 17.351 11.1285 15.6512 11.1285 13.3113C11.1285 11.0155 10.6145 8.74172 9.58659 6.49007C8.55866 4.19426 7.19553 2.03091 5.49721 0L1.47486 2.51656C2.18994 3.62031 2.81564 4.74614 3.35196 5.89404C3.84358 6.99779 4.22346 8.12362 4.49162 9.27152C3.15084 9.49227 2.07821 10.0662 1.27374 10.9934C0.424582 11.8764 7.0408e-07 13.0684 7.0408e-07 14.5695C7.0408e-07 16.2472 0.513967 17.5717 1.5419 18.543C2.56983 19.5143 3.88827 20 5.49721 20Z" fill="#1A1A1A"/>
</svg>
