<svg width="132" height="38" viewBox="0 0 132 38" fill="none" xmlns="http://www.w3.org/2000/svg">
<path d="M45.7144 0.958008L45.8853 1.97168L45.9272 2.21875L45.6802 2.25977L45.5669 2.2793C44.8999 2.39034 44.3053 2.70464 43.7427 3.25684C43.1788 3.81421 42.7719 4.47866 42.5015 5.29395L42.4243 5.5293L42.188 5.45312L42.0815 5.41895L41.4067 5.20996H41.4058L41.3032 5.18164L41.063 5.11523L41.1284 4.875C41.4092 3.8467 41.9378 2.93912 42.6968 2.17969V2.17871C43.4662 1.41205 44.3449 0.93461 45.3101 0.772461H45.311L45.4272 0.75293L45.6724 0.713867L45.7144 0.958008Z" fill="#4F555E" stroke="#4F555E" stroke-width="0.5"/>
<path d="M58.1069 26.1199C58.1606 26.1945 58.2169 26.2671 58.2769 26.3386L58.4683 26.5525L58.4771 26.5623H58.4761C58.5945 26.7014 58.7221 26.8285 58.8491 26.9324L58.9409 27.0066V27.0232C59.28 27.3274 59.6556 27.5962 60.0649 27.824L60.0659 27.825C61.1142 28.4102 62.3238 28.7107 63.6646 28.7107C64.519 28.7106 65.4109 28.5132 66.3481 28.1228C67.2861 27.7203 68.0699 27.2095 68.6938 26.5925L68.8745 26.4138L69.0503 26.5964L69.7563 27.3308L69.9292 27.5095L69.7515 27.6833C68.9742 28.4418 68.0176 29.0545 66.9038 29.5242L66.9028 29.5232C65.7736 30.004 64.7002 30.2311 63.6646 30.2312C62.108 30.2312 60.6994 29.9217 59.4448 29.2878L59.1958 29.157C58.7895 28.9324 58.4182 28.6835 58.0728 28.4119V28.4109C57.7644 28.1758 57.4901 27.9176 57.2417 27.6375L57.0601 27.4431C57.0029 27.3776 56.9485 27.3123 56.897 27.2498L56.7456 27.0662L56.9224 26.906C57.2077 26.6465 57.4779 26.3793 57.7134 26.1033L57.9204 25.8601L58.1069 26.1199ZM63.6646 13.2625C64.6793 13.2625 65.7563 13.5137 66.8823 13.9939H66.8813C68.0185 14.4749 68.9738 15.0981 69.7495 15.8435L69.9468 16.033L69.7407 16.2126L68.9644 16.8894L68.7886 17.0427L68.6235 16.8787C68.0252 16.2856 67.2542 15.7864 66.3169 15.3953L66.3149 15.3943C65.3773 14.9923 64.4939 14.7948 63.6646 14.7947C62.3245 14.7947 61.1148 15.0941 60.0669 15.6785C59.7186 15.8781 59.3944 16.1015 59.0894 16.3455L58.8706 16.5212L58.7212 16.282C58.6354 16.1446 58.538 16.0158 58.4331 15.8777V15.8767C58.3124 15.7239 58.1951 15.597 58.061 15.4421L57.8911 15.2468L58.0923 15.0847C58.43 14.8117 58.8008 14.5617 59.1978 14.3474C60.5125 13.6265 62.0036 13.2625 63.6646 13.2625Z" fill="#4F555E" stroke="#4F555E" stroke-width="0.5"/>
<path d="M57.4448 25.062C57.484 25.1553 57.5326 25.2423 57.5894 25.3481L57.7065 25.5474C57.8279 25.7457 57.9613 25.9386 58.0981 26.1196L58.2202 26.2817L58.0874 26.4351C57.8346 26.7251 57.5509 27.005 57.2563 27.2729L57.062 27.4487L56.895 27.2476C56.6351 26.9341 56.398 26.5946 56.1929 26.23L56.1001 26.0649L56.2329 25.9312C56.5239 25.6386 56.7808 25.329 57.0122 25.0112L57.2739 24.6528L57.4448 25.062Z" fill="#4F555E" stroke="#4F555E" stroke-width="0.5"/>
<path d="M57.541 15.958C57.7745 16.2477 58.002 16.576 58.1826 16.9316L58.3457 17.0664L58.1904 17.2588C57.9735 17.5281 57.7745 17.8027 57.6094 18.0957L57.5918 18.127L57.5879 18.1309C57.5862 18.1336 57.5831 18.1357 57.5811 18.1387C56.9949 19.172 56.7041 20.3646 56.7041 21.7236C56.7041 22.939 56.9507 24.059 57.4434 25.0527L57.5127 25.1924L57.418 25.3154C57.1692 25.6417 56.8944 25.9733 56.582 26.2822L56.4033 26.459L56.2275 26.2793C56.192 26.2429 56.1594 26.1928 56.1338 26.1367V26.1377C55.3884 24.8444 55.0332 23.3659 55.0332 21.7236C55.0332 20.0919 55.3883 18.6365 56.1338 17.3545C56.1426 17.3365 56.1514 17.3186 56.1602 17.3008L56.1641 17.292L56.168 17.2852C56.3475 16.9782 56.5415 16.6908 56.7715 16.4141C56.8919 16.2488 57.0219 16.0943 57.1641 15.9434L57.3613 15.7354L57.541 15.958Z" fill="#4F555E" stroke="#4F555E" stroke-width="0.5"/>
<path d="M58.439 15.1145L58.8286 15.5715L58.8315 15.5745C58.9349 15.7106 59.0462 15.8579 59.146 16.0178L59.2612 16.2034L59.0933 16.342C58.7573 16.6201 58.4562 16.9173 58.2056 17.2434L58.1958 17.2561L58.1724 17.2795L58.0112 17.4387L57.8374 17.2942C57.8166 17.277 57.7999 17.2587 57.7866 17.2405C57.784 17.2369 57.782 17.2331 57.7798 17.2297L57.7661 17.2161L57.7476 17.179C57.5858 16.8554 57.3753 16.55 57.1519 16.2727L57.021 16.1106L57.1567 15.9524C57.4387 15.6258 57.7654 15.3394 58.0962 15.0813L58.2837 14.9358L58.439 15.1145Z" fill="#4F555E" stroke="#4F555E" stroke-width="0.5"/>
<path d="M78.1714 13.2053C79.7014 13.2053 80.9578 13.5218 81.9497 14.175L81.9507 14.176C82.7722 14.7237 83.3737 15.2508 83.7397 15.76L83.8823 15.9768L83.8843 15.9807L84.1118 16.3938C84.2618 16.6762 84.4084 16.9728 84.5522 17.2834L84.7661 17.759L84.769 17.7668C85.0672 18.522 85.2583 19.301 85.3423 20.1155L85.397 20.6897C85.4445 21.2403 85.4702 21.7234 85.4702 22.137V22.387H72.0181C72.0501 23.5581 72.3058 24.6019 72.7915 25.5051L72.9976 25.8625C73.5002 26.6723 74.1561 27.3116 74.9819 27.7922L74.9829 27.7932L75.3374 27.9856C76.1791 28.4037 77.1191 28.6067 78.1714 28.6067C79.4227 28.6067 80.4087 28.4045 81.146 27.9963L81.1499 27.9934C81.8688 27.6132 81.5995 27.7539 81.8892 27.5989C81.89 27.5976 81.8913 27.5962 81.8921 27.595C81.9068 27.5718 81.9246 27.5478 81.9419 27.5256C82.0097 27.4388 82.1359 27.2968 82.2837 27.1262C82.5874 26.7757 83.0227 26.2614 83.4263 25.6663L83.5464 25.4885L83.7407 25.5813L84.6782 26.0276L84.894 26.1311L84.8003 26.3508C84.3496 27.4145 83.5465 28.3102 82.4351 29.0315C81.2954 29.7756 79.8776 30.1399 78.1714 30.1399C76.6479 30.1399 75.2908 29.7848 74.0991 29.0588H74.0981C72.9859 28.3797 72.1032 27.4498 71.4565 26.2834L71.3306 26.0471C70.6715 24.7689 70.3404 23.3072 70.3403 21.6897C70.3403 20.0721 70.6713 18.61 71.3296 17.3098H71.3306C71.9869 16.02 72.9117 15.0103 74.0981 14.2854H74.0991C75.2908 13.5595 76.6479 13.2053 78.1714 13.2053ZM82.0571 27.5188L82.022 27.5286L82.1167 27.7083C82.1414 27.674 82.1834 27.6262 82.2368 27.5637C82.2324 27.5606 82.2289 27.555 82.2241 27.552C82.1445 27.5026 82.0682 27.5168 82.0571 27.5188ZM81.1528 15.5706C80.3358 14.9561 79.3404 14.6707 78.186 14.7366L78.1782 14.7375H78.1714C76.9689 14.7375 75.912 15.0026 74.981 15.5403L74.978 15.5422C74.1539 16.0028 73.4987 16.6307 72.9966 17.4299L72.7915 17.7825C72.3059 18.6854 72.0505 19.7078 72.0181 20.8547H83.7339C83.7008 19.9079 83.4822 18.9604 83.0776 18.0276C82.6317 17.0099 81.9972 16.1962 81.1538 15.5706H81.1528Z" fill="#4F555E" stroke="#4F555E" stroke-width="0.5"/>
<path d="M88.8149 13.2625V15.3855C89.1807 14.9019 89.7013 14.492 90.3628 14.1501C91.4229 13.6014 92.646 13.3318 94.0239 13.3318C95.2074 13.3318 96.281 13.5796 97.2134 14.071H97.2124C98.1581 14.5616 98.8881 15.2475 99.4106 16.1257C99.9336 17.0043 100.2 18.0013 100.2 19.1091V30.1394H98.5298V19.6941C98.5298 18.2464 98.0949 17.094 97.2622 16.1941V16.1931C96.4211 15.3082 95.3521 14.863 94.0239 14.863C93.0188 14.8631 92.1294 15.0721 91.3315 15.4773L91.3325 15.4783C90.6344 15.8339 90.0746 16.296 89.644 16.8572L89.4683 17.1033C89.0308 17.7622 88.8149 18.4825 88.8149 19.2468V30.1394H87.144V13.2625H88.8149Z" fill="#4F555E" stroke="#4F555E" stroke-width="0.5"/>
<path d="M106.512 8.73193V13.2622H110.964V14.7944H106.512V25.8071C106.512 26.5345 106.695 27.1407 107.052 27.6382L107.216 27.8442L107.218 27.8462C107.668 28.3743 108.248 28.6421 108.952 28.6421C109.47 28.6421 110.048 28.5545 110.703 28.3647L110.951 28.2925L111.015 28.5435L111.282 29.5981L111.345 29.8462L111.096 29.9038C110.339 30.079 109.625 30.1743 108.952 30.1743C107.814 30.1743 106.841 29.7962 106.083 29.021V29.02C105.318 28.2497 104.903 27.2611 104.842 26.0718L104.841 26.0591V14.7944H101.872V13.2622H104.841V8.73193H106.512Z" fill="#4F555E" stroke="#4F555E" stroke-width="0.5"/>
<path d="M114.632 6.41602V30.1396H112.961V6.41602H114.632Z" fill="#4F555E" stroke="#4F555E" stroke-width="0.5"/>
<path d="M117.998 13.2625L118.062 13.4177L123.934 27.7048L129.526 13.4216L129.588 13.2625H131.369L131.231 13.6052L125.146 28.7878L125.146 28.7888L121.865 37.0916L121.803 37.2498H120.025L120.158 36.9089L123.02 29.5701L116.325 13.6091L116.18 13.2625H117.998Z" fill="#4F555E" stroke="#4F555E" stroke-width="0.5"/>
<path d="M52.5117 1.65576C54.07 1.65577 55.6011 2.00905 57.082 2.7124C58.2932 3.28867 59.3244 4.1365 60.1455 5.2124L60.3076 5.43018L60.3115 5.43701L60.3164 5.44385L60.4092 5.59229L60.5342 5.79248L60.3418 5.9292L59.3682 6.61768L59.1514 6.77002L59.0107 6.54541L58.9248 6.40674C58.2063 5.3715 57.3088 4.57533 56.2598 4.04443V4.04346C55.0412 3.42996 53.7796 3.13037 52.5117 3.13037C50.4906 3.13037 48.8475 3.65723 47.6025 4.68994L47.6016 4.69189C46.3277 5.73402 45.6895 7.07378 45.6895 8.69482C45.6895 9.90628 46.0312 10.901 46.6943 11.6743C47.3524 12.436 48.1807 13.0452 49.168 13.4897L49.9492 13.8169C50.7971 14.156 51.8445 14.5303 53.082 14.9243L54.2344 15.2847C55.3356 15.6435 56.2804 15.9969 57.0645 16.3452H57.0635L57.5312 16.5532L57.5381 16.5571C57.7116 16.6428 57.8943 16.734 58.0674 16.8354C58.0981 16.847 58.1201 16.8613 58.1309 16.8687C58.1567 16.8864 58.1762 16.9057 58.1875 16.9175L58.3584 17.0952L58.1836 17.2681L58.1797 17.271C57.9666 17.5364 57.7719 17.8076 57.6094 18.0962L57.4775 18.3306L57.2529 18.1821C56.9486 17.9808 56.6263 17.7928 56.2822 17.6392V17.6382C56.2711 17.6335 56.2595 17.6301 56.25 17.6245L56.248 17.6235C55.2495 17.1935 53.9179 16.706 52.2852 16.1938V16.1929C50.5185 15.6755 49.0461 15.1453 47.918 14.6226V14.6216C46.8041 14.1117 45.8567 13.364 45.1113 12.3911V12.3901C44.353 11.4189 43.9824 10.1689 43.9824 8.69482C43.9825 6.63674 44.7576 4.97203 46.3682 3.64014C47.9645 2.31016 50.0437 1.65576 52.5117 1.65576Z" fill="#4F555E" stroke="#4F555E" stroke-width="0.5"/>
<path d="M44.2129 24.6816L44.3164 24.8193H44.3174C45.2468 26.0519 46.3774 27.0128 47.6621 27.6709H47.6611C49.1263 28.4122 50.6075 28.7792 52.0586 28.7793C54.1471 28.7793 55.8891 28.264 57.2637 27.2607C57.3682 27.1797 57.4733 27.0995 57.5771 27.0195L57.5781 27.0186C57.7628 26.8784 57.9391 26.7147 58.0957 26.5586L58.1025 26.5527L58.1084 26.5469L58.1221 26.5352L58.2969 26.3828L58.4619 26.5469L58.8672 26.9482L58.9414 27.0215V27.0488C59.0078 27.1389 59.0785 27.2294 59.1494 27.3193L59.2168 27.3994L59.3682 27.5771L59.2021 27.7393L59.1201 27.8203C59.0259 27.9254 58.9068 28.0186 58.8408 28.0742L58.8398 28.0752C58.6847 28.2042 58.5242 28.3287 58.3564 28.4297C56.6728 29.6514 54.5613 30.2539 52.0586 30.2539C50.3162 30.2538 48.5626 29.8438 46.874 29.0371C45.3502 28.3081 44.0553 27.2252 43.0137 25.8301L43.0059 25.8193L42.999 25.8076L42.918 25.6709L42.8076 25.4844L42.9756 25.3486L43.8555 24.6377L44.0566 24.4756L44.2129 24.6816Z" fill="#4F555E" stroke="#4F555E" stroke-width="0.5"/>
<path d="M2.37695 0.768555L2.44043 0.923828L6.73535 11.3672L10.8252 0.927734L10.8877 0.768555H12.6104L12.4736 1.11133L7.82129 12.7275L5.31445 19.0635L5.25195 19.2217H3.53516L3.66797 18.8809L5.8584 13.252L0.769531 1.11523L0.624023 0.768555H2.37695Z" fill="#4F555E" stroke="#4F555E" stroke-width="0.5"/>
<path d="M19.4067 0.75C20.6034 0.75 21.7027 1.02241 22.6606 1.58594H22.6616C23.5003 2.06909 24.1801 2.73651 24.7007 3.56641L24.9136 3.93164L24.9155 3.93359C25.4461 4.93704 25.7074 6.07924 25.7075 7.31934C25.7075 8.57046 25.4463 9.71297 24.9155 10.7168L24.9136 10.7197C24.3717 11.7069 23.6211 12.5089 22.6626 13.0615L22.6636 13.0625C21.7049 13.6272 20.6046 13.9004 19.4067 13.9004C18.2096 13.9003 17.1219 13.6276 16.1743 13.0635C15.2138 12.5102 14.4752 11.7059 13.9458 10.7178V10.7168C13.4142 9.71316 13.1509 8.57073 13.1509 7.31934C13.1509 6.07939 13.4137 4.93765 13.9448 3.93457C14.4642 2.94316 15.2149 2.1385 16.1743 1.58594C17.1218 1.02201 18.2098 0.750042 19.4067 0.75ZM19.4067 2.24805C18.5099 2.24809 17.7092 2.4669 17.0083 2.88867C16.3087 3.31077 15.7599 3.90643 15.3618 4.6709C14.9655 5.44509 14.7642 6.33372 14.7642 7.31934C14.7642 8.3173 14.966 9.20534 15.3618 9.96777L15.5181 10.248C15.8999 10.8829 16.3972 11.3929 17.0083 11.7617L17.2759 11.9102C17.9109 12.2346 18.622 12.4023 19.4067 12.4023C20.3274 12.4023 21.1413 12.1831 21.853 11.7607C22.5529 11.3384 23.1112 10.732 23.4956 9.9707L23.4966 9.96777H23.4976C23.8951 9.20561 24.0962 8.3175 24.0962 7.31934C24.0962 6.33311 23.895 5.44419 23.4966 4.66992L23.4956 4.66797C23.1116 3.90734 22.5531 3.31168 21.8511 2.88867V2.8877C21.1398 2.46621 20.3265 2.24805 19.4067 2.24805Z" fill="#4F555E" stroke="#4F555E" stroke-width="0.5"/>
<path d="M29.4683 0.77124V9.07104C29.4683 10.0393 29.7349 10.7928 30.2397 11.3406L30.3433 11.448L30.3442 11.449C30.9233 12.0172 31.674 12.3015 32.6655 12.3015C33.347 12.3015 33.9754 12.1338 34.5405 11.8054L34.7466 11.6765C35.2152 11.3645 35.5952 10.9814 35.8784 10.5378L36.0122 10.3298L36.2222 10.4607L36.2954 10.5076L36.7915 10.6931L36.8892 10.7244L37.1294 10.8005L37.0513 11.0398C36.7865 11.8529 36.2379 12.5225 35.4399 13.032C34.633 13.547 33.6959 13.8064 32.6655 13.8064C31.7554 13.8064 30.9217 13.6141 30.1948 13.2292V13.2283C29.4624 12.8459 28.8794 12.3036 28.4722 11.614L28.3267 11.3523C28.0103 10.7295 27.8521 10.0267 27.8521 9.2644V0.77124H29.4683Z" fill="#4F555E" stroke="#4F555E" stroke-width="0.5"/>
<path d="M39.501 0.77124V13.8005H37.8936V0.77124H39.501Z" fill="#4F555E" stroke="#4F555E" stroke-width="0.5"/>
</svg>
