<svg width="24" height="20" viewBox="0 0 24 20" fill="none" xmlns="http://www.w3.org/2000/svg">
<path d="M5.63128 20C4.02235 20 2.68156 19.4702 1.60894 18.4106C0.536313 17.351 0 15.6512 0 13.3113C0 11.0155 0.513966 8.74172 1.5419 6.49007C2.56983 4.19426 3.93296 2.03091 5.63128 0L9.65363 2.51656C8.93855 3.62031 8.31285 4.74614 7.77654 5.89404C7.28492 6.99779 6.90503 8.12362 6.63687 9.27152C7.97765 9.49227 9.05028 10.0662 9.85475 10.9934C10.7039 11.8764 11.1285 13.0684 11.1285 14.5695C11.1285 16.2472 10.6145 17.5717 9.58659 18.543C8.55866 19.5143 7.24022 20 5.63128 20ZM18.5028 20C16.8939 20 15.5531 19.4702 14.4804 18.4106C13.4078 17.351 12.8715 15.6512 12.8715 13.3113C12.8715 11.0155 13.3855 8.74172 14.4134 6.49007C15.4413 4.19426 16.8045 2.03091 18.5028 0L22.5251 2.51656C21.8101 3.62031 21.1844 4.74614 20.648 5.89404C20.1564 6.99779 19.7765 8.12362 19.5084 9.27152C20.8492 9.49227 21.9218 10.0662 22.7263 10.9934C23.5754 11.8764 24 13.0684 24 14.5695C24 16.2472 23.486 17.5717 22.4581 18.543C21.4302 19.5143 20.1117 20 18.5028 20Z" fill="#1A1A1A"/>
</svg>
